<svg width="32" height="32" viewBox="0 0 32 32" fill="none" xmlns="http://www.w3.org/2000/svg">
<rect width="32" height="32" rx="8" fill="#2463EB"/>
<path d="M6.20152 22.9905C5.45639 22.9905 5 22.5267 5 21.7221V10.4388C5 9.64368 5.45639 9.17039 6.20152 9.17039H10.2252C12.8984 9.17039 14.7519 11.0162 14.7519 13.7424C14.7519 16.4686 12.8425 18.3144 10.1228 18.3144H7.40305V21.7221C7.40305 22.5267 6.95597 22.9905 6.20152 22.9905ZM7.40305 16.3455H9.58256C11.3057 16.3455 12.3116 15.3989 12.3116 13.7424C12.3116 12.1048 11.315 11.1677 9.59187 11.1677H7.40305V16.3455Z" fill="white"/>
<path d="M17.7138 22.9905C16.9687 22.9905 16.5123 22.5267 16.5123 21.7221V10.2779C16.5123 9.47329 16.9687 9.00947 17.7138 9.00947C18.4682 9.00947 18.9153 9.47329 18.9153 10.2779V15.4368H18.9992L24.4014 9.51116C24.7273 9.15145 25.0161 9 25.4073 9C26.05 9 26.525 9.49222 26.525 10.117C26.525 10.4483 26.4132 10.7039 26.1338 11.0068L22.0914 15.2948L26.5343 20.7566C26.8603 21.1636 27 21.5044 27 21.8262C27 22.4888 26.497 23 25.845 23C25.37 23 25.044 22.8201 24.6715 22.3469L20.3124 16.9324L18.9153 18.4375V21.7221C18.9153 22.5267 18.4682 22.9905 17.7138 22.9905Z" fill="#092663"/>
</svg>
