<?xml version="1.0" encoding="utf-8"?>
<!-- Generator: Adobe Illustrator 28.5.0, SVG Export Plug-In . SVG Version: 9.03 Build 54727)  -->
<svg version="1.0" id="katman_1" xmlns="http://www.w3.org/2000/svg" xmlns:xlink="http://www.w3.org/1999/xlink" x="0px" y="0px"
	 viewBox="0 0 841.89 595.28" style="enable-background:new 0 0 841.89 595.28;" xml:space="preserve">
<path id="Shape_00000158023060629818516430000009579945827910528928_" d="M645.1,386.71c4.03,2.36,8.07,3.54,12.68,3.54
	c4.61,0,8.65-1.18,12.68-3.54c4.03-2.36,6.92-5.31,9.22-9.43c2.31-4.13,3.46-8.25,3.46-12.97c0-4.72-1.15-8.84-3.46-12.97
	c-2.31-4.13-5.19-7.66-9.8-9.43c-4.03-2.36-8.07-3.54-12.68-3.54s-8.65,1.18-12.68,3.54c-4.03,2.36-7.49,5.31-9.8,9.43
	c-2.31,4.13-3.46,8.84-3.46,12.97c0,4.72,1.15,8.84,3.46,12.97C637.03,381.4,641.06,384.35,645.1,386.71z M639.34,353.1
	c1.73-3.54,4.61-6.48,8.07-8.25c3.46-1.77,6.92-2.95,10.38-2.95s6.92,1.18,10.38,2.95s6.34,4.72,8.07,8.25
	c1.73,3.54,2.88,7.07,2.88,11.2c0,3.54-1.15,7.07-2.88,10.61c-1.73,3.54-4.61,5.9-8.07,8.25c-3.46,1.77-6.92,2.95-10.38,2.95
	s-7.49-1.18-10.38-2.95c-3.46-1.77-5.76-4.72-8.07-8.25c-1.73-3.54-2.88-7.07-2.88-10.61C636.45,360.18,637.61,356.64,639.34,353.1z
	"/>
<path id="Shape_00000013889316526748216170000010002730760718209447_" d="M651.57,366.86h2.8c1.68,0,2.8,0.59,3.36,1.19
	c1.12,0.59,2.8,2.97,4.48,6.53l2.24,4.75h5.04l-3.36-5.34c-1.68-2.37-2.8-4.75-3.92-5.34c-0.56-0.59-1.12-1.19-2.24-1.19
	c2.24,0,3.92-1.19,5.6-2.37c1.68-1.78,2.24-3.56,2.24-5.34c0-1.19-0.56-2.97-1.12-4.15c-1.12-1.19-1.68-2.37-3.36-2.97
	c-1.12-0.59-3.92-0.59-6.72-0.59h-8.96v26.71h4.48v-11.87H651.57z M651.57,354.39h5.04c2.24,0,3.36,0,4.48,0.59
	c0.56,0.59,1.12,0.59,1.68,1.19c0.56,0.59,0.56,1.19,0.56,2.37s-0.56,2.37-1.12,2.97c-1.12,0.59-2.8,1.19-5.04,1.19h-5.04
	L651.57,354.39z"/>
<path id="Shape_00000023973737576112890680000007643790143064766881_" d="M420.73,62.6L150.72,532.22h540.61L420.73,62.6z
	 M255.66,482.6L255.66,482.6c-1.77-0.59-2.95-0.59-3.54,0c-0.59,0-1.77,1.18-2.95,1.77l0,0l0,0c-1.18,0.59-3.54,1.18-6.48,0.59
	c-2.36-0.59-6.48-1.18-9.43-1.18c-2.95-0.59-3.54-2.36-3.54-4.14c0.59-3.54,2.95-20.68,3.54-23.63c0.59-4.73,4.13-7.09,13.56-2.36
	c53.65,26.58,53.06-20.08,54.24-25.4l30.66-165.4c5.31-27.17,33.6-30.72,37.73-30.72c7.66,0.59,13.56,1.77,14.74,1.18
	c1.77-0.59,3.54-4.14,10.02-2.95c8.84,1.77,13.56,0.59,12.97,5.91l-4.72,20.08c0,1.18-1.18,5.91-11.2,2.36
	c-30.07-10.04-34.19,11.81-34.19,13.59c0,0.59-31.25,172.49-31.25,172.49C314.03,498.55,268.04,486.74,255.66,482.6z M368.85,477.88
	c-0.59,2.36-2.95,4.73-5.31,4.73h-18.28c-2.36,0-4.13-2.36-3.54-4.73l15.33-84.47c0.59-2.36,2.95-4.73,5.31-4.73h18.28l0,0l0,0
	c2.36,0,4.13,2.36,3.54,4.73L368.85,477.88z M386.54,357.96h-18.28c-2.36,0-4.13-2.36-3.54-4.73l2.95-15.95
	c0.59-2.36,2.95-4.73,5.31-4.73h18.28c2.36,0,4.13,2.36,3.54,4.73l-2.95,15.95C391.26,356.19,388.9,357.96,386.54,357.96z
	 M590.52,477.88L590.52,477.88c-1.18,2.95-5.9,7.09-14.74,4.73c-3.54-1.18-10.61-4.73-13.56-4.73c-3.54,0-15.33,5.91-31.25,5.91
	c-17.69,0-20.63-8.27-25.94-8.27c-2.36,0-15.92,8.27-27.12,8.27c-18.28-0.59-27.71-39.58-45.98-39.58c-5.31,0-7.07,1.77-8.84,5.91
	l0,0l-5.31,27.17c-0.59,2.36-2.95,4.73-5.31,4.73H394.2c-2.36,0-4.13-1.77-3.54-4.73l44.22-242.2c0.59-2.36,2.95-4.73,5.31-4.73
	h18.28c2.36,0,4.13,2.36,3.54,4.73c0,0-31.84,176.63-32.42,179.58c-1.77,9.45,25.94,3.54,36.55-21.27c2.36-5.32,5.31-5.32,7.07-5.32
	c2.36,0,12.97,0,15.92,0c4.13,0,3.54,5.32,2.95,7.09c-5.31,21.86-31.25,35.44-31.25,38.4c0,2.95,15.92,18.31,18.87,23.04
	c2.95,4.73,14.74,2.36,14.74-4.73c0-39.58,60.13-27.76,64.26-27.76c4.72,0,4.72-11.22,4.72-13.59c0-1.77-4.72-4.14-16.51-4.14h-33.6
	c-2.95,0-4.72-1.77-4.72-4.14l2.36-10.04c0.59-2.36,2.95-4.14,5.9-4.14c0,0,48.34-0.59,53.65,1.77
	c14.74,5.91,15.33,17.72,14.74,27.17c-0.59,8.86-6.48,37.22-6.48,38.99c0,4.73,7.07,3.54,10.61,4.73c2.95,1.18,2.95,4.14,2.36,5.32
	C592.29,466.06,591.7,474.92,590.52,477.88z"/>
<path id="Path_00000167369731860421517650000010758600869151519915_" d="M538.98,439.46c-11.36-0.61-25.12,2.45-25.12,11.62
	c0,6.73,7.77,13.45,21.53,12.84l0,0c11.96-0.61,21.53-6.11,22.13-12.84C558.11,442.52,550.34,440.08,538.98,439.46z"/>
</svg>
