<svg xmlns="http://www.w3.org/2000/svg" viewBox="0 0 467.32 154.76"><defs><style>.a{fill:#1d1d1b;}.b{fill:#ee7203;}</style></defs><title>rz_BauderLogo_CMYK_CZ</title><path class="a" d="M280.58,164.23a11.72,11.72,0,0,1-5.87-1.61l-.3-.18,1.27-2.46.35.2a8.82,8.82,0,0,0,4.7,1.41c1.7,0,2.76-.88,2.76-2.29,0-1.21-.65-1.84-2.25-2.18l-1.92-.4c-2.67-.56-4.2-2.24-4.2-4.62,0-3,2.41-5.12,5.86-5.12a10.53,10.53,0,0,1,4.9,1.29l.31.18L285,150.89l-.33-.15a8.28,8.28,0,0,0-3.71-1.08c-1.54,0-2.54.85-2.54,2.16,0,.88.33,1.54,1.93,1.87l2.05.43c2.93.62,4.42,2.2,4.42,4.68C286.78,162,284.23,164.23,280.58,164.23Z" transform="translate(-29.55 -15.43)"/><path class="a" d="M293.91,164.26a4.8,4.8,0,0,1-2.18-.47c-1.17-.57-1.7-1.62-1.7-3.41V150.15h-2v-2.58h2c0-1.35.2-3.14.25-3.58l0-.26,3.32-.73-.07.53c0,.23-.27,2.22-.3,4h4.05l-1.05,2.58h-3.1v9.58c0,1.63.42,1.92,1.61,1.92a2.68,2.68,0,0,0,1.35-.27l.43-.21.51,2.29-.26.14A6.08,6.08,0,0,1,293.91,164.26Z" transform="translate(-29.55 -15.43)"/><path class="a" d="M303,163.76h-3.17V151.48a8.55,8.55,0,0,0-.49-3.14l-.17-.39,3.13-.85.13.28a5.88,5.88,0,0,1,.5,1.67,5.6,5.6,0,0,1,4-1.94,3.31,3.31,0,0,1,.95.17l.37.13L307,150.76l-.36-.14a1.62,1.62,0,0,0-.54-.1,3.32,3.32,0,0,0-2.31,1,2.42,2.42,0,0,0-.79,2.18Zm.53-17.41-5.84-4.61,1.57-1.91,4.39,2.68,4.29-2.7,1.37,1.95Z" transform="translate(-29.55 -15.43)"/><path class="a" d="M315.61,164.1c-4.46,0-7.23-3.29-7.23-8.59a8.58,8.58,0,0,1,1.95-6.07,6.44,6.44,0,0,1,9.36-.48c1.43,1.47,1.87,3,1.87,6.77v.72h-9.64a5.75,5.75,0,0,0,.65,3.17,4,4,0,0,0,3.53,1.72,4.92,4.92,0,0,0,3.53-1.36l.34-.31,1.32,2.21-.22.2A8.06,8.06,0,0,1,315.61,164.1Zm-3.67-10.23h6.29a5.66,5.66,0,0,0-.65-2.87,2.92,2.92,0,0,0-2.47-1.19C313.2,149.81,312.13,151.17,311.94,153.87Z" transform="translate(-29.55 -15.43)"/><path class="a" d="M330.64,164.1a6,6,0,0,1-5.24-2.48,9.49,9.49,0,0,1-1.56-5.7c0-3,.75-5.16,2.44-6.84a6,6,0,0,1,4.45-1.91,6.4,6.4,0,0,1,4.46,1.76l.28.24-1.8,2.26-.3-.25a3.72,3.72,0,0,0-2.7-1.15,3,3,0,0,0-2.59,1.54,10.89,10.89,0,0,0-.82,4.87c0,2.28.6,5,3.44,5a3.92,3.92,0,0,0,3-1.54l.28-.34,1.85,2.15-.24.25A6.38,6.38,0,0,1,330.64,164.1Z" transform="translate(-29.55 -15.43)"/><path class="a" d="M350.63,163.76h-3.14v-11a2.84,2.84,0,0,0-.48-2,2.2,2.2,0,0,0-1.53-.51,5.79,5.79,0,0,0-4.12,2.37v11.21h-3.17V144.35a9.51,9.51,0,0,0-.38-3l-.18-.43,3.19-.61.11.29a13.37,13.37,0,0,1,.43,3.79V148c0,.4,0,.85,0,1.23a7.56,7.56,0,0,1,4.72-2,4.42,4.42,0,0,1,4.32,2.72,7.07,7.07,0,0,1,.27,2.34Z" transform="translate(-29.55 -15.43)"/><path class="a" d="M355.32,170.18l-1-2.31.4-.13c1.73-.54,2.42-1.34,3.16-3.92l-.78.12-.07-.36c-.19-1-1-4-1.53-5.5l-3.44-10,3.1-1.05,3.28,10.38c.24.76.48,1.77.66,2.56,0-.11.06-.22.1-.33l.48-1.63,3.12-10.41h3.56l-5.47,16.5c-.89,2.69-2.14,5.29-5.26,6Z" transform="translate(-29.55 -15.43)"/><path class="a" d="M380,164.23a11.72,11.72,0,0,1-5.87-1.61l-.3-.18,1.28-2.46.34.2a8.82,8.82,0,0,0,4.7,1.41c1.7,0,2.76-.88,2.76-2.29,0-1.21-.65-1.84-2.25-2.18l-1.92-.4c-2.67-.56-4.2-2.24-4.2-4.62,0-3,2.41-5.12,5.86-5.12a10.53,10.53,0,0,1,4.9,1.29l.31.18-1.22,2.44-.34-.15a8.28,8.28,0,0,0-3.71-1.08c-1.54,0-2.54.85-2.54,2.16,0,.88.33,1.54,1.93,1.87l2.05.43c2.93.62,4.42,2.2,4.42,4.68C386.15,162,383.6,164.23,380,164.23Z" transform="translate(-29.55 -15.43)"/><path class="a" d="M396.54,170l-1.67-2.23.43-.19c1.91-.83,2.1-2,2.1-4.71v-15.1l3.23-.64v16a9.93,9.93,0,0,1-.46,3.55,6,6,0,0,1-3.36,3.24ZM399,145.44a2.27,2.27,0,1,1,2.26-2.27A2.24,2.24,0,0,1,399,145.44Z" transform="translate(-29.55 -15.43)"/><path class="a" d="M407.64,163.76h-3.26V147.69l3.26-.52Zm-1.58-18.32a2.25,2.25,0,0,1-2.26-2.24,2.28,2.28,0,0,1,2.26-2.29,2.27,2.27,0,1,1,0,4.53Z" transform="translate(-29.55 -15.43)"/><path class="a" d="M416.48,164.23a11.68,11.68,0,0,1-5.86-1.61l-.3-.18,1.27-2.46.34.2a8.88,8.88,0,0,0,4.71,1.41c1.7,0,2.76-.88,2.76-2.29,0-1.21-.65-1.84-2.25-2.18l-1.92-.4c-2.67-.56-4.2-2.24-4.2-4.62,0-3,2.41-5.12,5.86-5.12a10.56,10.56,0,0,1,4.9,1.29l.31.18-1.23,2.44-.33-.15a8.32,8.32,0,0,0-3.71-1.08c-1.55,0-2.54.85-2.54,2.16,0,.88.33,1.54,1.93,1.87l2,.43c2.93.62,4.42,2.2,4.42,4.68C422.69,162,420.14,164.23,416.48,164.23Z" transform="translate(-29.55 -15.43)"/><path class="a" d="M429.91,164.26a4.8,4.8,0,0,1-2.18-.47c-1.18-.57-1.7-1.62-1.7-3.41V150.15h-2v-2.58h2c0-1.35.2-3.14.25-3.58l0-.26,3.32-.73-.06.53c0,.23-.28,2.22-.31,4h4.06l-1.05,2.58h-3.1v9.58c0,1.63.42,1.92,1.61,1.92a2.71,2.71,0,0,0,1.35-.27l.43-.21.5,2.29-.25.14A6.08,6.08,0,0,1,429.91,164.26Z" transform="translate(-29.55 -15.43)"/><path class="a" d="M440.78,164.17c-4.41,0-7-3.21-7-8.59s2.66-8.47,6.95-8.47A6.54,6.54,0,0,1,446.3,150a10.12,10.12,0,0,1,1.49,5.95C447.79,161,445.11,164.17,440.78,164.17Zm-.12-14.33a3.16,3.16,0,0,0-2.83,1.47,8.39,8.39,0,0,0-.7,3.86A10.51,10.51,0,0,0,438,160a3.31,3.31,0,0,0,2.81,1.37,3,3,0,0,0,3-2.07,8.82,8.82,0,0,0,.44-3.23,10.72,10.72,0,0,0-.67-4.49A3.24,3.24,0,0,0,440.66,149.84Z" transform="translate(-29.55 -15.43)"/><path class="a" d="M454.75,164.26a4.89,4.89,0,0,1-2.17-.47c-1.18-.57-1.71-1.62-1.71-3.41V150.15h-2v-2.58h2c0-1.35.19-3.14.25-3.58l0-.26,3.32-.73-.07.53c-.07.54-.27,2.36-.3,4h4.05l-1.05,2.58H454v9.58c0,1.63.42,1.92,1.61,1.92a2.71,2.71,0,0,0,1.35-.27l.43-.21.51,2.29-.26.14A6.17,6.17,0,0,1,454.75,164.26Z" transform="translate(-29.55 -15.43)"/><path class="a" d="M465.62,164.17c-4.4,0-7-3.21-7-8.59s2.67-8.47,6.95-8.47a6.54,6.54,0,0,1,5.61,2.86,10.12,10.12,0,0,1,1.49,5.95C472.63,161,470,164.17,465.62,164.17Zm-.12-14.33a3.16,3.16,0,0,0-2.83,1.47,8.39,8.39,0,0,0-.7,3.86,10.52,10.52,0,0,0,.91,4.86,3.31,3.31,0,0,0,2.81,1.37,3,3,0,0,0,3-2.07,8.83,8.83,0,0,0,.45-3.23,10.52,10.52,0,0,0-.68-4.49A3.22,3.22,0,0,0,465.5,149.84Z" transform="translate(-29.55 -15.43)"/><path class="a" d="M487,164.55l-.27-.22a4.74,4.74,0,0,1-1.6-2,6.08,6.08,0,0,1-4.74,1.95,4.6,4.6,0,0,1-4.4-2.41,5.89,5.89,0,0,1-.44-2.46V147.76l3.14-.61v11.56c0,1.5.25,1.93.77,2.29a3,3,0,0,0,1.68.46,4.32,4.32,0,0,0,3.56-2.5V147.79l3.14-.53V159c0,2,.3,2.58.93,3.16l.28.26Z" transform="translate(-29.55 -15.43)"/><path class="a" d="M494.44,164.17a2.5,2.5,0,0,1-2.48-2.52,2.39,2.39,0,0,1,2.42-2.42,2.43,2.43,0,0,1,2.49,2.42A2.48,2.48,0,0,1,494.44,164.17Z" transform="translate(-29.55 -15.43)"/><polygon class="b" points="466.85 0 0 0 0 115.15 20.95 115.15 20.95 20.35 466.85 20.35 466.85 0"/><polygon class="a" points="380.75 73.78 380.75 65.46 360.22 65.46 360.21 43.82 380.75 43.82 380.75 33.55 338.84 33.55 338.84 105.63 380.75 105.63 380.75 96.9 360.22 96.9 360.22 73.78 380.75 73.78"/><path class="a" d="M455.37,93.26l15.85,27.8h21.56L473.34,86.17,474,86c.57-.1,13.76-2.3,13.76-19.67S470.94,49,470.94,49H423.09v72.11h20.18V89.61l.42-.07a17.05,17.05,0,0,1,2.54-.17C449.24,89.37,453.27,90,455.37,93.26ZM454.6,81.2H443.28v-22H454.6s12.36.13,12.36,11S454.6,81.2,454.6,81.2Z" transform="translate(-29.55 -15.43)"/><path class="a" d="M330.78,49H292.92v72.11h35.39c4.34,0,18.53-1,25.21-13.76,7.56-14.49,5.15-35.49-2.26-46.34C347.32,55.33,340.31,49,330.78,49Zm4.67,49.47c-1.18,6.68-4.93,13.78-13,13.78h-8.67V58.69h8.43c3.66,0,6.61,2.64,8.29,5.28C337.06,74.31,337.18,86.1,335.45,98.42Z" transform="translate(-29.55 -15.43)"/><path class="a" d="M130.22,85.58A46.77,46.77,0,0,0,124,81l-.59-.37.55-.44c7-5.48,8.6-10.69,7.62-18A15.17,15.17,0,0,0,116.29,48.9H67.41v72.18l49.75,0c8.34,0,16.89-5.55,18.37-16.95C136.55,96.36,134.92,90.58,130.22,85.58ZM97.27,81.2h-9.8V58.72h9.82s12.25,0,12.25,11.25S97.27,81.2,97.27,81.2Zm2.64,30.63H87.47V89.2H99.91s12.24.13,12.24,11.31C112.15,111.87,99.91,111.83,99.91,111.83Z" transform="translate(-29.55 -15.43)"/><path class="a" d="M206,121.06l0-51.24C206,57.23,198,49,187.55,49H165.3c-11.6,0-19.34,8.4-19.39,20.85v51.26h21.38V88.83H184.6v32.23ZM184.63,71.18v8.27H167.29V71.18s-.66-12.47,8.67-12.47S184.63,71.18,184.63,71.18Z" transform="translate(-29.55 -15.43)"/><path class="a" d="M258.75,103.81V49h21l0,51.31c0,12.45-7.85,20.85-19.45,20.85H238.6c-10.47,0-18.94-9.36-18.94-20.87V49h21v54.88s-.07,7.48,9,7.48S258.75,103.81,258.75,103.81Z" transform="translate(-29.55 -15.43)"/></svg>